<svg height="512" viewBox="0 0 64 64" width="512" xmlns="http://www.w3.org/2000/svg"><path d="m61 47a1 1 0 0 0 -1 1v6h-44v-18h5a1 1 0 0 0 0-2h-6a1 1 0 0 0 -1 1v20a1 1 0 0 0 1 1h4v5a1 1 0 0 0 2 0v-5h2v5a1 1 0 0 0 2 0v-5h26v5a1 1 0 0 0 2 0v-5h2v5a1 1 0 0 0 2 0v-5h4a1 1 0 0 0 1-1v-7a1 1 0 0 0 -1-1z"/><path d="m61 34h-36a1 1 0 0 0 0 2h35v8a1 1 0 0 0 2 0v-9a1 1 0 0 0 -1-1z"/><path d="m11 50h-3v-28h39v9a1 1 0 0 0 2 0v-9h4a1 1 0 0 0 .929-1.372l-4-10a1 1 0 0 0 -.929-.628h-29v-2h1a1 1 0 0 0 1-1v-4a1 1 0 0 0 -1-1h-11a1 1 0 0 0 -1 1v4a1 1 0 0 0 1 1h1v2h-4a1 1 0 0 0 -.929.628l-4 10a1 1 0 0 0 .929 1.372h3v29a1 1 0 0 0 1 1h4a1 1 0 0 0 0-2zm2.633-38h3.935l-1.408 8h-4.831zm5.967 0h3.974l-.512 8h-4.871zm31.923 8h-4.77l-2.3-8h3.874zm-6.852 0h-4.831l-1.408-8h3.935zm-6.862 0h-4.871l-.512-8h3.974zm-7.387-8 .512 8h-5.868l.512-8zm-19.422-8h9v2h-9zm7 4v2h-5v-2zm-10.323 4h3.874l-2.3 8h-4.774z"/><path d="m42 32a1 1 0 0 0 1-1v-4a1 1 0 0 0 -1-1h-10a1 1 0 0 0 -1 1v4a1 1 0 0 0 2 0v-3h3v3a1 1 0 0 0 2 0v-3h3v3a1 1 0 0 0 1 1z"/><path d="m25 32a1 1 0 0 0 1-1v-4a1 1 0 0 0 -1-1h-10a1 1 0 0 0 -1 1v4a1 1 0 0 0 2 0v-3h3v3a1 1 0 0 0 2 0v-3h3v3a1 1 0 0 0 1 1z"/><path d="m23 40a2 2 0 0 1 2 2 1 1 0 0 0 2 0 4 4 0 1 0 -4 4 2 2 0 1 1 -2 2 1 1 0 0 0 -2 0 4 4 0 1 0 4-4 2 2 0 0 1 0-4z"/><path d="m33.948 38.684a1 1 0 0 0 -1.9 0l-4 12a1 1 0 1 0 1.9.632l.772-2.316h4.56l.772 2.316a1 1 0 1 0 1.9-.632zm-2.561 8.316 1.613-4.838 1.613 4.838z"/><path d="m46 50h-5v-11a1 1 0 0 0 -2 0v12a1 1 0 0 0 1 1h6a1 1 0 0 0 0-2z"/><path d="m56 50h-5v-4h4a1 1 0 0 0 0-2h-4v-4h5a1 1 0 0 0 0-2h-6a1 1 0 0 0 -1 1v12a1 1 0 0 0 1 1h6a1 1 0 0 0 0-2z"/></svg>